<svg width="30" height="28" viewBox="0 0 30 28" fill="none" xmlns="http://www.w3.org/2000/svg">
<path fill-rule="evenodd" clip-rule="evenodd" d="M21.4843 7.38368V7.21994C21.4843 6.45097 22.1006 5.82761 22.8728 5.82761C23.6397 5.82761 24.2614 6.44314 24.2614 7.21994V9.8487L26.4604 11.8006C27.2885 12.5356 27.0675 13.1315 25.9689 13.1315H24.2614V24.0003C24.2614 24.5524 23.8037 25 23.266 25H6.74294C6.1932 25 5.74756 24.5539 5.74756 24.0003V13.1315H4.03119C2.9317 13.1315 2.70986 12.5372 3.53968 11.8006L14.2473 2.29624C14.663 1.92721 15.3334 1.92396 15.7528 2.29624L21.4843 7.38368ZM17.7815 15.4138V22.1241H21.4843V15.4138H17.7815Z" fill="white"/>
</svg>
