<svg width="31" height="28" viewBox="0 0 31 28" fill="none" xmlns="http://www.w3.org/2000/svg">
<path fill-rule="evenodd" clip-rule="evenodd" d="M25.3541 20.9886C24.0466 20.2386 22.7856 19.8696 21.7962 19.6466C21.7982 19.6456 21.8002 19.6456 21.8022 19.6446C21.7033 19.6226 21.6144 19.6046 21.5205 19.5856C21.4589 19.5726 21.3974 19.5586 21.3378 19.5476C20.7714 19.4316 20.3261 19.3586 20.0828 19.2796C19.4437 19.0686 18.7562 18.8456 18.7562 17.9456C18.7562 17.0467 18.744 16.9287 18.9621 16.8087C19.3771 16.5767 19.6224 16.2187 19.6769 15.9407C19.7779 15.4217 19.8304 13.9677 19.9617 13.7827C20.0929 13.5938 20.3282 13.7547 20.4089 13.3288C20.4867 12.9028 20.4867 12.5288 20.5644 12.3698C20.6432 12.2098 20.9178 11.1778 20.7482 10.8238C20.5967 10.5078 20.3221 10.6728 20.3029 10.4768C20.2696 10.1578 20.8562 7.47991 20.4594 6.34594C20.2363 5.70296 19.7648 5.10697 19.7607 5.09297C19.472 4.052 17.48 3.49402 16.9812 3.28002C16.4825 3.06703 15.0155 2.77404 14.019 3.28002C13.0225 3.78701 12.7549 4.46899 12.3339 4.73498C11.9149 5.00298 11.4676 5.16597 11.0557 6.34594C10.6589 7.47991 11.2455 10.1578 11.2132 10.4768C11.194 10.6728 10.9184 10.5078 10.769 10.8238C10.5973 11.1778 10.873 12.2098 10.9507 12.3698C11.0295 12.5288 11.0295 12.9028 11.1092 13.3288C11.187 13.7547 11.4222 13.5938 11.5545 13.7827C11.6857 13.9677 11.7382 15.4217 11.8392 15.9407C11.8927 16.2187 12.139 16.5767 12.554 16.8087C12.7711 16.9287 12.76 17.0467 12.76 17.9456C12.76 18.8456 12.0734 19.0686 11.4323 19.2796C10.7457 19.5056 8.50436 19.6346 6.14587 20.9886C4.11853 22.1515 4.2518 25.4994 4.2518 25.4994H13.2082H15.2628H27.2482C27.2482 25.4994 27.3824 22.1515 25.3541 20.9886Z" fill="white"/>
</svg>
