<svg width="31" height="28" viewBox="0 0 31 28" fill="none" xmlns="http://www.w3.org/2000/svg">
<path fill-rule="evenodd" clip-rule="evenodd" d="M15.25 0.5C14.6756 0.5 14.2108 0.964787 14.2108 1.53923V1.71679C14.2108 2.21336 13.8625 2.65634 13.3709 2.73671C13.1348 2.77284 12.8993 2.81957 12.6656 2.87066C12.1834 2.98219 11.6968 2.70992 11.5068 2.25261L11.4389 2.09186C11.2196 1.56103 10.614 1.30808 10.0831 1.52926C9.55231 1.74857 9.29936 2.35479 9.52116 2.88499L9.58907 3.05321C9.78159 3.50803 9.62832 4.0507 9.20715 4.31113C9.00279 4.4376 8.8028 4.57156 8.6109 4.71049C8.20655 4.99772 7.64955 4.93167 7.29878 4.58153L7.1748 4.45505C6.76858 4.0507 6.11127 4.0507 5.70505 4.45505C5.3007 4.86127 5.3007 5.51858 5.70505 5.9248L5.83153 6.04878C6.18167 6.39955 6.24772 6.95655 5.96049 7.3609C5.82156 7.5528 5.6876 7.75279 5.56113 7.95715C5.3007 8.37832 4.75803 8.53159 4.30072 8.34156L4.13499 8.27365C3.60665 8.05434 2.99608 8.3048 2.77677 8.83563C2.55808 9.36397 2.80854 9.97206 3.33937 10.1914L3.50261 10.2568C3.95743 10.4468 4.23219 10.9334 4.12066 11.4156C4.06957 11.6493 4.02284 11.8848 3.98422 12.1209C3.90634 12.6106 3.46336 12.9608 2.96679 12.9608H2.78923C2.21479 12.9608 1.75 13.4256 1.75 14C1.75 14.5744 2.21479 15.0392 2.78923 15.0392H2.96679C3.46336 15.0392 3.90634 15.3875 3.98671 15.8791C4.02284 16.1152 4.06957 16.3507 4.12066 16.5844C4.23219 17.0666 3.95992 17.5532 3.50261 17.7432L3.34186 17.8111C2.81103 18.0304 2.55808 18.636 2.77926 19.1669C2.99857 19.6977 3.60479 19.9506 4.13499 19.7288L4.30321 19.6609C4.76052 19.4709 5.3007 19.6242 5.56362 20.0429C5.6901 20.2472 5.82156 20.4472 5.96049 20.6416C6.25021 21.0459 6.18417 21.6029 5.83402 21.9512L5.70505 22.0777C5.3007 22.4839 5.3007 23.1412 5.70505 23.545C6.11127 23.9518 6.76858 23.9518 7.1748 23.545L7.30127 23.421C7.65204 23.0708 8.20655 23.0023 8.6109 23.292C8.80529 23.4309 9.00528 23.5649 9.20715 23.6914C9.62832 23.9518 9.78408 24.4945 9.59406 24.9518L9.52365 25.115C9.30434 25.6452 9.5573 26.2539 10.0856 26.4751C10.6158 26.6944 11.2221 26.4439 11.4439 25.9131L11.5093 25.7499C11.6993 25.2951 12.1859 25.0203 12.6675 25.1293C12.9011 25.1829 13.1348 25.229 13.3734 25.2683C13.8606 25.3437 14.2108 25.7866 14.2108 26.2832V26.4608C14.2108 27.0352 14.6756 27.5 15.25 27.5C15.8244 27.5 16.2892 27.0352 16.2892 26.4608V26.2832C16.2892 25.7866 16.6375 25.3437 17.1291 25.2633C17.3652 25.2272 17.6007 25.1804 17.8344 25.1293C18.3166 25.0178 18.8032 25.2901 18.9932 25.7474L19.0611 25.9081C19.2804 26.439 19.886 26.6919 20.4169 26.4707C20.9477 26.2514 21.2006 25.6452 20.9788 25.115L20.9109 24.9468C20.7209 24.4895 20.8742 23.9493 21.2929 23.6864C21.4972 23.5599 21.6972 23.4284 21.8916 23.2895C22.2959 22.9998 22.8529 23.0658 23.2012 23.416L23.3277 23.545C23.7339 23.9493 24.3912 23.9493 24.795 23.545C25.2018 23.1387 25.2018 22.4814 24.795 22.0752L24.671 21.9487C24.3208 21.598 24.2523 21.0435 24.542 20.6391C24.6809 20.4447 24.8149 20.2447 24.9414 20.0404C25.2018 19.6217 25.7445 19.4659 26.2018 19.6559L26.365 19.7263C26.8952 19.9457 27.5039 19.6927 27.7251 19.1644C27.9444 18.6342 27.6939 18.0279 27.1631 17.8061L26.9999 17.7407C26.5451 17.5507 26.2703 17.0641 26.3793 16.5825C26.4329 16.3489 26.479 16.1152 26.5183 15.8766C26.5937 15.3894 27.0366 15.0392 27.5332 15.0392H27.7108C28.2852 15.0392 28.75 14.5744 28.75 14C28.75 13.4256 28.2852 12.9608 27.7108 12.9608H27.5332C27.0366 12.9608 26.5937 12.6125 26.5133 12.1209C26.4772 11.8848 26.4304 11.6493 26.3793 11.4156C26.2678 10.9334 26.5401 10.4468 26.9974 10.2568L27.1581 10.1889C27.689 9.96956 27.9419 9.36397 27.7207 8.83314C27.5014 8.30231 26.8952 8.04936 26.365 8.27116L26.1968 8.33907C25.7395 8.5291 25.1993 8.37583 24.9364 7.95715C24.8099 7.75279 24.6784 7.5528 24.5395 7.35841C24.2498 6.95406 24.3158 6.39706 24.666 6.04878L24.795 5.9223C25.1993 5.51608 25.1993 4.85878 24.795 4.45256C24.3887 4.0482 23.7314 4.0482 23.3252 4.45256L23.2012 4.58153C22.8504 4.93167 22.2935 5.00021 21.8891 4.71049C21.6947 4.57156 21.4947 4.4376 21.2904 4.31113C20.8717 4.0507 20.7184 3.50803 20.9084 3.05072L20.9763 2.88499C21.1957 2.35665 20.9452 1.74608 20.4144 1.52677C19.886 1.30808 19.2779 1.55854 19.0586 2.08937L18.9907 2.25261C18.8007 2.70743 18.3141 2.98219 17.8325 2.87066C17.5989 2.81957 17.3652 2.77284 17.1266 2.73422C16.6375 2.65634 16.2892 2.21336 16.2892 1.71679V1.53923C16.2892 0.964787 15.8244 0.5 15.25 0.5ZM15.25 5.69365C19.4848 5.69365 22.9744 8.86492 23.4859 12.9608H17.0462C16.6761 12.3184 15.9902 11.924 15.25 11.924H15.2475L12.0276 6.34099C13.0183 5.9248 14.1061 5.69365 15.25 5.69365ZM10.2339 7.38769L13.4538 12.9608C13.2712 13.2773 13.174 13.6349 13.174 14C13.174 14.3626 13.2712 14.7202 13.4538 15.0342L10.2314 20.6098C8.23583 19.0915 6.94365 16.699 6.94365 14C6.94365 11.2985 8.23832 8.90604 10.2339 7.38769ZM17.0462 15.0392H23.4859C22.9744 19.1351 19.4848 22.3064 15.25 22.3064C14.1061 22.3064 13.0183 22.0752 12.0276 21.659L15.2475 16.076H15.25C15.992 16.076 16.6761 15.6791 17.0462 15.0392Z" fill="white"/>
</svg>
